<svg id="Warstwa_1" data-name="Warstwa 1" xmlns="http://www.w3.org/2000/svg" xmlns:xlink="http://www.w3.org/1999/xlink" viewBox="0 0 6000 4500"><defs><linearGradient id="Gradient_bez_nazwy" x1="3556.9" y1="1963.3" x2="3592.79" y2="1963.3" gradientTransform="matrix(1, 0, 0, -1, 0, 4002)" gradientUnits="userSpaceOnUse"><stop offset="0" stop-color="#ffef26"/><stop offset="0.02" stop-color="#ffea21"/><stop offset="0.1" stop-color="#fed70f"/><stop offset="0.19" stop-color="#fdcc04"/><stop offset="0.28" stop-color="#fdc800"/><stop offset="0.67" stop-color="#f18f34"/><stop offset="0.89" stop-color="#e95f32"/><stop offset="1" stop-color="#e3312d"/></linearGradient><linearGradient id="Gradient_bez_nazwy_2" x1="3785.94" y1="1972.1" x2="3811.64" y2="1972.1" xlink:href="#Gradient_bez_nazwy"/><linearGradient id="Gradient_bez_nazwy_3" x1="3614.8" y1="1963.25" x2="3772.8" y2="1963.25" xlink:href="#Gradient_bez_nazwy"/><linearGradient id="Gradient_bez_nazwy_4" x1="3366.5" y1="2373.74" x2="3764.4" y2="2373.74" xlink:href="#Gradient_bez_nazwy"/><linearGradient id="Gradient_bez_nazwy_5" x1="1790.4" y1="1715.1" x2="1935.8" y2="1715.1" xlink:href="#Gradient_bez_nazwy"/><linearGradient id="Gradient_bez_nazwy_6" x1="3468.28" y1="2149.45" x2="3804.6" y2="2149.45" xlink:href="#Gradient_bez_nazwy"/><linearGradient id="Gradient_bez_nazwy_7" x1="1657.33" y1="1704.11" x2="2323.07" y2="1704.11" xlink:href="#Gradient_bez_nazwy"/><linearGradient id="Gradient_bez_nazwy_8" x1="2817.44" y1="1614.9" x2="3248.36" y2="1614.9" xlink:href="#Gradient_bez_nazwy"/><linearGradient id="Gradient_bez_nazwy_9" x1="2881.7" y1="1620.2" x2="2995" y2="1620.2" xlink:href="#Gradient_bez_nazwy"/><linearGradient id="Gradient_bez_nazwy_10" x1="1584.7" y1="2053" x2="4100.9" y2="2053" xlink:href="#Gradient_bez_nazwy"/></defs><title>WHITE GR-TGLAB_11new-01</title><path d="M1149,2568.8c-12.4,26.7-15.8,52.8-20.7,78.4-3.9,20.7,10.1,24.7,23.4,29.3,14.2,4.9,17.9-7.5,22.2-17.3C1190.1,2622.1,1169.9,2597.1,1149,2568.8Z" style="fill:#ead557;stroke:#000;stroke-miterlimit:10"/><path d="M1032.6,2197.6c-46.5,56.9-60.8,116.4-20.4,174.3C1043.8,2317.4,1060.8,2260.5,1032.6,2197.6Z" style="fill:#ead557;stroke:#000;stroke-miterlimit:10"/><path d="M866.5,2158.1c7,66.4,54.9,128.7,99.6,120.6C968.2,2212.1,934,2181.4,866.5,2158.1Z" style="fill:#ead557;stroke:#000;stroke-miterlimit:10"/><path d="M1011.2,2419.5c-9.1-24.7-14.9-49.4-28.9-69.5-14.3-20.6-33.1-34.7-55.8-46.8C933.9,2371.3,970.4,2420.1,1011.2,2419.5Z" style="fill:#ead557;stroke:#000;stroke-miterlimit:10"/><path d="M1017.4,2073.7c-58.5,54-63.3,100.4-33.6,136C1000.8,2166.1,1027,2125.8,1017.4,2073.7Z" style="fill:#ead557;stroke:#000;stroke-miterlimit:10"/><path d="M1067.9,2309.4c-47.6,45.1-66.5,120.5-7.5,166.7,7.5-27.4,21.7-51.3,23.9-81.7C1086.7,2362.7,1082.2,2335.6,1067.9,2309.4Z" style="fill:#ead557;stroke:#000;stroke-miterlimit:10"/><path d="M891.4,1997.7c-16.4,83.3,3,144,59.2,157C978,2081.8,927.8,2045.1,891.4,1997.7Z" style="fill:#ead557;stroke:#000;stroke-miterlimit:10"/><path d="M1113.4,2652.2c-7.8-70.5-42.6-102.6-113.9-108.1C1014.2,2607,1051.3,2644.3,1113.4,2652.2Z" style="fill:#ead557;stroke:#000;stroke-miterlimit:10"/><path d="M1062.5,2550.4c-15.9-80.1-49.1-115.7-110.9-121.4C973.3,2485.3,1001.4,2533.3,1062.5,2550.4Z" style="fill:#ead557;stroke:#000;stroke-miterlimit:10"/><path d="M1097.4,2568.6c34.2-33.9,35.4-79.2,4.5-148.7C1060.8,2476.6,1056.7,2551.6,1097.4,2568.6Z" style="fill:#ead557;stroke:#000;stroke-miterlimit:10"/><path d="M1178.7,2724.2c-9.5-31.1-63.3-52.6-113.2-44.2C1094.6,2723.6,1137.4,2721.6,1178.7,2724.2Z" style="fill:#ead557;stroke:#000;stroke-miterlimit:10"/><path d="M784.2,2573.4c29.3,20.2,54.6,37.7,80,55.2-36.1-48-85.1-81.4-117.9-134.2,14.4-6.6,20.3,2.4,27.1,7.7,69,54.1,130.8,117.5,194.4,178.7,104.8,100.8,221,183.7,348.4,247.3,3.6,1.8,7.1,4.6,15.1-.2-3.5-2.6-6.5-4.5-9-6.9-51.7-50.6-96.8-107.9-140.5-166.6-13.7-18.5-29.5-27.7-52.4-27.4-46.4.7-78.6-25.7-102.4-70.1,15.5-7.3,29.9-1.5,46.1-4.8-4.7-2.5-7.6-4.4-10.7-5.6-36.2-14-64.3-36.6-76.5-79.2-3.7-13.1-13.3-24-19.7-36.2-3.4-6.4-10.5-12.1-2-21.4,5.3-5.8-2.3-10.4-4.7-15-17.1-31.7-25.1-68.7-48.4-95.8,11.9-14.2,18.8,3.6,28.8-.5-29.3-33.6-35.2-77.6-44.2-120-1.4-6.7-2.5-11.9-7.1-17.2-23.5-27.4-41.2-58.6-48.3-96.2-3.3-17.7-10.8-32.4-20.8-47.2-27.5-40.6-39.5-89.2-51.3-137.5-3.5-14.6-6.2-29.4-9.8-46.8,16.7,3.8,17.1,16.5,19,26.3,8.3,41.7,21.8,81.4,35.8,121,9.3,26.3,23.5,45.8,49.1,55.2,26.9,9.8,51.1,26.4,76.4,42.4,3.3-11.5-3.8-14.9-9.4-17.3C868.6,2134.8,851,2081,860,2016c10.3-73.8,8.7-148.1,15.6-221.9.9-9.9.2-20.9,8.5-28.6,8,6.2,5.6,14.3,4.9,21.4-5.5,53-5.6,106.3-8.8,159.4-.7,12.1,1.6,21.5,8.6,30.6,14.9,19.2,29.3,39,43.4,58.9a169.94,169.94,0,0,1,26.1,56.4c18.5-11.8,25-33.9,39.3-48.3,1.7-1.7.8-7,.3-10.5-6.5-50.8.4-101.6,1.8-152.4.2-6.3,0-13.7,8-16,8.4,5.8,5.6,14.9,5.3,22.5-1.1,23.9-2.4,47.9-4.8,71.8-3.8,36.3-2.6,71.6,8.2,106.3,9.8,31-3.3,58.9-13.4,86.8-7.1,19.6-16.1,38.3-24.1,57.5-3.6,8.7-7.3,17.1-18.6,11.5a41.05,41.05,0,0,0,6.2,25.4c17.4-29.5,34.2-58.2,54.4-92.5,19.8,42.7,29.2,81.3,21.6,127.9,13.9-12.5,19.7-7.3,23.7,6.4,7.8,26.7,14.8,53.7,21.8,80.3,6.2,23.6,17.7,48.3,26.9,72.6,7.7,20.4,9,42.1,9.6,63.7.5,16.8-3.8,34.6-14.6,45.9-18.4,19.1-12.8,36.5-.2,61,4-25,8.8-45.3,15.8-64.8,2-5.4,2-12.6,9.2-13.2,5.8-.5,7.6,5.1,10.2,9.4,6.7,11.1,13.1,22.7,20.6,33.1,20.4,28.2,18.8,57.9,3.4,87.9-5.1,10-2.4,15.5,1,25.3,18,52.8,55.5,88.6,88.7,128.2,7.8,9.2,15.9,18,25.6,25.9-9.8-34.4-31.8-63.1-35.6-100.6,45.5,75.5,74,164.2,149.6,215.1-13.4,14.8-24.3,15.6-35,12.8-94.7-25-184.5-63-262.3-127.6-99.8-82.8-194.1-173.5-299.9-247.6C794.7,2591.6,787.6,2587.8,784.2,2573.4Zm270.2-273.2c-47.6,45.1-66.5,120.5-7.5,166.7,7.5-27.4,21.7-51.3,23.9-81.7C1073.2,2353.4,1068.7,2326.4,1054.4,2300.2ZM877.9,1988.4c-16.4,83.3,3,144,59.2,157C964.5,2072.5,914.2,2035.8,877.9,1988.4Zm141.2,200c-46.5,56.9-60.8,116.4-20.4,174.3C1030.3,2308.1,1047.3,2251.2,1019.1,2188.4ZM853,2148.9c7,66.4,54.9,128.7,99.6,120.6C954.7,2202.8,920.5,2172.1,853,2148.9ZM1099.9,2643c-7.8-70.5-42.6-102.6-113.9-108.1C1000.7,2597.7,1037.7,2635.1,1099.9,2643ZM1049,2541.1c-15.9-80.1-49.1-115.7-110.9-121.4C959.8,2476,987.9,2524,1049,2541.1Zm34.9,18.3c34.2-33.9,35.4-79.2,4.5-148.7C1047.2,2467.3,1043.2,2542.3,1083.9,2559.4Zm-86.2-149.2c-9.1-24.7-14.9-49.4-28.9-69.5-14.3-20.6-33.1-34.7-55.8-46.8C920.4,2362,956.8,2410.9,997.7,2410.2Zm6.2-345.8c-58.5,54-63.3,100.4-33.6,136C987.3,2156.9,1013.5,2116.6,1003.9,2064.4Zm131.6,495.1c-12.4,26.7-15.8,52.8-20.7,78.4-3.9,20.7,10.1,24.7,23.4,29.3,14.2,4.9,17.9-7.5,22.2-17.3C1176.6,2612.8,1156.4,2587.8,1135.5,2559.5Zm29.7,155.5c-9.5-31.1-63.3-52.6-113.2-44.2C1081.1,2714.3,1123.9,2712.3,1165.2,2715Z" style="fill:#ba7d11;stroke:#000;stroke-miterlimit:10"/><path d="M1183,2490.3c14.7,33.4,31.6,61.1,56.4,82.2a51,51,0,0,0,30,12.3c8.8.6,16.9-2.5,19.6-12.5,5.6-20.9-18-66-38.2-72.4C1230.1,2493.4,1209,2487.9,1183,2490.3Z" style="fill:#ead557;stroke:#000;stroke-miterlimit:10"/><path d="M1253.5,2471.3c-.3-35.1-6.3-64.9-14.6-94.9-9.2-33-29.6-50.2-57.7-60.4-17-6.2-32.7-17.8-54-12.5,6.6,34.4,11.7,69,20.2,102.5,5.8,22.9,21.2,38.8,41.1,49.5C1208,2466.1,1229.8,2463,1253.5,2471.3Z" style="fill:#ead557;stroke:#000;stroke-miterlimit:10"/><path d="M1110,2124.3c-8.9,107.7,15.9,172.7,100.2,182.3C1231.6,2234.7,1196.9,2170.6,1110,2124.3Z" style="fill:#ead557;stroke:#000;stroke-miterlimit:10"/><path d="M1311,2186.3c-29,17.9-50.1,45.2-71.8,71.8-1.7,2.1-2.1,5.5-2.6,8.4-8.3,46.1,4.5,87,21.9,126.5C1315.7,2336.2,1335.1,2268.8,1311,2186.3Z" style="fill:#ead557;stroke:#000;stroke-miterlimit:10"/><path d="M1229.1,2245.3c69-57,100-142.2,75.1-206.5C1231.7,2077.4,1197.9,2170.5,1229.1,2245.3Z" style="fill:#ead557;stroke:#000;stroke-miterlimit:10"/><path d="M1326,1887.2c-33.1,29.4-63,55.5-92.3,82.4-4.3,4-7.9,11.6-8.3,17.7-1.5,29.4-1.8,58.8-2.7,93.8C1275.7,2025.2,1318.3,1970.5,1326,1887.2Z" style="fill:#ead557;stroke:#000;stroke-miterlimit:10"/><path d="M1188.8,2126.2c1-75-15.7-140.4-74.6-185.1C1096.9,2004.1,1135.6,2100.6,1188.8,2126.2Z" style="fill:#ead557;stroke:#000;stroke-miterlimit:10"/><path d="M1300.3,2534.2c40.3-30.3,49.3-118.1,29.3-161.8C1276.3,2408.5,1261.4,2488.2,1300.3,2534.2Z" style="fill:#ead557;stroke:#000;stroke-miterlimit:10"/><path d="M1397.9,2710.3a1467.9,1467.9,0,0,1,16.7-161.1c13.4-83.5,28.1-166.9,30.6-251.8.3-10.5,2-21.6-8.3-34.3C1422.6,2415.4,1383.1,2560.6,1397.9,2710.3Z" style="fill:#ead557;stroke:#000;stroke-miterlimit:10"/><path d="M1188.2,1952.1c-.2-70.9-25.9-151.2-61.1-193.3C1107.1,1834.4,1126,1883.8,1188.2,1952.1Z" style="fill:#ead557;stroke:#000;stroke-miterlimit:10"/><path d="M1229.7,1917.9c20-23,44.1-39.5,65.2-60,31.8-30.8,43.7-67.8,32.8-113.1C1264.2,1782.3,1233.7,1841.2,1229.7,1917.9Z" style="fill:#ead557;stroke:#000;stroke-miterlimit:10"/><path d="M1232,1611.9c-61.8,60.8-72.7,125.4-21.9,190.3C1250.3,1776,1254.4,1658.7,1232,1611.9Z" style="fill:#ead557;stroke:#000;stroke-miterlimit:10"/><path d="M1388.8,2752.1c26.1-77.8,59.5-152,89.9-227.5,30.9-76.9,31.8-159.8,45.9-241.4,14.8,4.2,11.4,14.9,11.5,22.6,1.8,107.6-18.8,209.5-65.7,305.8-25.3,52-43,107.8-54.4,165.3-9.6,48.4-9.4,95.5,22,135.8,5.3,6.8,12.2,14.1,10.5,25.3-10.7,5.6-15.3-3.6-20.4-9.8-21.5-25.9-42.6-53-55-85.2-21.3-55.3-57.3-96.7-96.6-135.7-20.5-20.3-37.3-44-53.4-69,39.9,18.1,66.5,54.6,100.2,83.7-15.5-48.6-31.1-97.1-47-146.8-39.9,18-67.1-3.5-90.5-35.3-13.6-18.5-27-37.2-35.2-59.6-6-16.4-5.2-18.5,11.7-27.7-63.1-38.2-51.7-112.8-69.6-173.1-2.8-9.5,6.3-11.9,13.8-17.5-35.5-47.5-29.4-106.1-33.1-162.2-1.2-17.9,5.3-21.3,19.9-12.7,33,19.4,61.3,45.6,87.3,76.5,5.6-13.5,3.4-19.6-6.6-27.1-35.8-26.5-64.8-59.3-82.9-104.1-13.4-33.1-23-64.8-13.1-101.4,4.6-17.1,0-31.8-12-44.6-20.1-21.4-32.8-48.9-46.7-75.3-3.5-6.7-6.7-14.2-2.5-22.5,8.9,1,10.5,8.4,13.1,13.9,21.4,44.6,49.5,83.9,84.2,116.2,47.2,44,67.3,100.5,69.3,167,.2,8.2,1.7,16.3,2.9,24.4.2,1.2,1.7,2.2,2.9,3.7,4.6-10.4,9.1-20.5,12.7-28.5-15.9-43.4-15.7-86.8-5.4-129.5,5.4-22.4,27-33.9,43.5-47,45.1-35.9,84.7-76.2,110.8-131.7,15.8-33.6,42-59.7,62.9-89.7,3.8-5.4,7.9-10.6,15.3-8.8,6.4,11.8-2.7,18.4-7.7,25.5-21.8,31.1-45.9,60.3-65.2,93.6-14.1,24.3-27.7,48.6-33.1,77.2-8.7,45.9-21.3,90.1-51.8,130.5,28.4-12.8,31.7,5.4,32.5,25.5s.8,40.4.5,60.6c-.3,20.5-10,38.7-14.7,60.5,16.7-1.1,18.4,10.2,19.3,24.2,1,15.6,5.5,30.8,6.5,46.3,2.4,38.1-.4,74.8-26.7,105.2-11.8,13.7-20.9,30.3-33.1,43.4-13.2,14.3-15.8,28.7-7,50.3,12.3-34.1,28.6-61.4,53.8-82.4,14.5-12,20.8-7.8,24.5,8.1,15,65.4,13,127.6-33.7,180.4-5.7,6.5-9.1,11.8-6.1,21.5,22.8,72.5,44.8,145.3,73.5,215.2,1.6,3.9,2.3,8.6,8.7,10.4-4.7-41.4-8.9-82.1-9.6-123.1-1.5-86.5,10.1-171.8,22.9-257.1,22.6-150.6,41-301.6,23.4-454.1-1.2-10.4-4.9-22,3.5-33.7,10.9,6.5,10.3,18.3,11.2,28.6,7.8,84.1,13,168.4,2.5,253.1-1.7,13.7-2.5,27.5,4.7,39.1,11.9,19.1,12,40.4,11.2,62.3-3.2,93.3-21.5,184.5-35,276.4C1395,2627.7,1389.3,2689.4,1388.8,2752.1Zm-155.2-298.6c-.3-35.1-6.3-64.9-14.6-94.9-9.2-33-29.6-50.2-57.7-60.4-17-6.2-32.7-17.8-54-12.5,6.6,34.4,11.7,69,20.2,102.5,5.8,22.9,21.2,38.8,41.1,49.5C1188.2,2448.3,1209.9,2445.2,1233.6,2453.5Zm-143.5-347c-8.9,107.7,15.9,172.7,100.2,182.3C1211.7,2216.9,1177,2152.8,1090.1,2106.5Zm201.1,62c-29,17.9-50.1,45.2-71.8,71.8-1.7,2.1-2.1,5.5-2.6,8.4-8.3,46.1,4.5,87,21.9,126.5C1295.8,2318.4,1315.2,2251,1291.2,2168.5Zm-82,59c69-57,100-142.2,75.1-206.5C1211.8,2059.6,1178,2152.7,1209.2,2227.5Zm96.9-358.1c-33.1,29.4-63,55.5-92.3,82.4-4.3,4-7.9,11.6-8.3,17.7-1.5,29.4-1.8,58.8-2.7,93.8C1255.8,2007.3,1298.4,1952.7,1306.1,1869.4Zm-137.2,239c1-75-15.7-140.4-74.6-185.1C1077.1,1986.3,1115.8,2082.8,1168.9,2108.4Zm111.6,408c40.3-30.3,49.3-118.1,29.3-161.8C1256.4,2390.7,1241.5,2470.4,1280.5,2516.4Zm97.6,176.1a1467.9,1467.9,0,0,1,16.7-161.1c13.4-83.5,28.1-166.9,30.6-251.8.3-10.5,2-21.6-8.3-34.3C1402.7,2397.6,1363.2,2542.8,1378.1,2692.5Zm-215-220c14.7,33.4,31.6,61.1,56.4,82.2a51,51,0,0,0,30,12.3c8.8.6,16.9-2.5,19.6-12.5,5.6-20.9-18-66-38.2-72.4C1210.2,2475.6,1189.2,2470.1,1163.1,2472.5Z" style="fill:#ba7d11;stroke:#000;stroke-miterlimit:10"/><path d="M1418,1446.6c6,9.4,2.5,17.2-.1,24.8a2026.91,2026.91,0,0,1-85.7,215.3c-6.3,13.6-9.4,26.1-7,40.5,9.6,56.9-10,100.9-51,136-21.1,18.1-43.4,34.9-58.5,60.2-4.6,7.7-12.2,8.9-20.2,8.2-7.2-11-3.8-23.3-2.5-34.8,7.3-64.4,24.7-123,77.8-162.3,27.4-20.2,45-49,59.4-82.1,26.4-60.7,49.5-122.6,72.8-184.6C1406.1,1460,1406.9,1449.8,1418,1446.6Zm-208.2,453.5c20-23,44.1-39.5,65.2-60,31.8-30.8,43.7-67.8,32.8-113.1C1244.3,1764.5,1213.8,1823.4,1209.8,1900.1Z" style="fill:#ba7d11;stroke:#000;stroke-miterlimit:10"/><path d="M3556.9,2038.7c0,11.5,8,20.8,17.9,20.8s17.9-9.3,17.9-20.8-8.1-20.8-17.9-20.8S3556.9,2027.3,3556.9,2038.7Z" style="stroke:#1d1d1b;stroke-miterlimit:10;stroke-width:3px;fill:url(#Gradient_bez_nazwy)"/><path d="M3798.8,2009.9c-7,0-12.8,8.9-12.8,20s5.8,20,12.8,20,12.9-9,12.9-20S3805.9,2009.9,3798.8,2009.9Z" style="stroke:#1d1d1b;stroke-miterlimit:10;stroke-width:3px;fill:url(#Gradient_bez_nazwy_2)"/><polygon points="3620 2065.1 3772.8 2058.7 3764.4 2012.4 3614.8 2018.8 3620 2065.1" style="stroke:#1d1d1b;stroke-miterlimit:10;stroke-width:3px;fill:url(#Gradient_bez_nazwy_3)"/><path d="M3764.4,1699.9s-116.9-140.6-171.5-163-226.4,1.5-226.4,1.5l94.9,190.8Z" style="stroke:#1d1d1b;stroke-miterlimit:10;stroke-width:3px;fill:url(#Gradient_bez_nazwy_4)"/><path d="M1920,2170.5a53.12,53.12,0,0,1,15.8,2.4c-15.2-17.1-33.8-27.3-54-27.3-50.5,0-91.4,63.2-91.4,141.3s40.9,141.3,91.4,141.3c11.7,0,22.9-3.5,33.3-9.8-42.1-3.9-75.4-57.8-75.4-123.8C1839.7,2226,1875.7,2170.5,1920,2170.5Z" style="stroke:#1d1d1b;stroke-miterlimit:10;stroke-width:3px;fill:url(#Gradient_bez_nazwy_5)"/><path d="M3468.4,1758.1c5,20.4,33.1,218,33.1,218l303.1-27.6-10.2-69.8-222.1,18.6-6.9-29.3,225.6-11.9-.6-4.5c-79.6-3.1-226.5-8.9-227.6-9s153.8-9.2,224.3-13.4l-.5-3.2-240.2-7.6,235.9-21.4-.2-1.6-245.6-7.1,241.6-20.4-5.8-38.9C3772.6,1729.2,3461.4,1729.2,3468.4,1758.1Z" style="stroke:#1d1d1b;stroke-miterlimit:10;stroke-width:3px;fill:url(#Gradient_bez_nazwy_6)"/><path d="M1883,2758s328,124.9,426.7-368.4c82.8-414.1-239.1-618.6-409.8-554.3-111.2,30.5-207,132.1-231.8,277.7-13.9,81.7-17.7,143.9,9.2,209.9-3.2-40.4-5.3-113.3,2.2-157.2,33-193.4,107.9-293.8,268.3-219.5,66,37.3,165.6,132.3,162.4,366.4,0,0-16.1,293.6-227.1,271.9,0,0,128.5,84.2,227.1-108.3,0,0-1.3,170.8-222.1,182.9,0,0,207.6,74.2,284.6-165.1C2172.6,2494.1,2112.3,2784.8,1883,2758Z" style="stroke:#1d1d1b;stroke-miterlimit:10;stroke-width:3px;fill:url(#Gradient_bez_nazwy_7)"/><path d="M2974.5,2087.7c-72,19.7-134,85.4-150.1,179.8-9,52.8-11.4,93.1,5.9,135.8-2.1-26.2-3.4-73.3,1.4-101.7,21.4-125.2,69.9-190.1,173.7-142.1,42.7,24.1,107.1,85.6,105.1,237.1,0,0-10.4,190-147,176,0,0,83.1,54.6,147-70.1,0,0-.9,110.6-143.8,118.4,0,0,134.4,48,184.2-106.8,0,0-39,188.2-187.4,170.8,0,0,212.3,80.9,276.2-238.4C3293.3,2178.4,3084.9,2046,2974.5,2087.7Z" style="stroke:#1d1d1b;stroke-miterlimit:10;stroke-width:3px;fill:url(#Gradient_bez_nazwy_8)"/><path d="M2920.1,2387.8c0-53.3,28-96.6,62.6-96.6a39.5,39.5,0,0,1,12.3,1.9c-11.9-13.4-26.3-21.4-42.1-21.4-39.3,0-71.2,49.3-71.2,110.1s31.9,110.1,71.2,110.1a49.85,49.85,0,0,0,26-7.6C2946.1,2481.3,2920.1,2439.2,2920.1,2387.8Z" style="stroke:#1d1d1b;stroke-miterlimit:10;stroke-width:3px;fill:url(#Gradient_bez_nazwy_9)"/><path d="M3838,1996.8l9.2,83.7c-8,.3-18.8.9-31.8,1.5l.1-.4-7.6.8c-55.9,3-144.7,8.4-216.3,12.6-38.9,2-74.1,4-91.7,5.2L3464.8,1967l17.1,143.1c-57.7-92.1-144.1-150.8-240.8-150.8H3031.7c-58.7,0-113.3,21.9-160.4,59.3-67.7-2.8-210.4,16.5-259.9,18.7-.4-1.1,42.4-16,42-17.1,58.4-18.6,73.6-23.5,132-42l-33.2.9q173.25-33.3,346.7-66.5-152-2.25-303.8,3.2,124.35-21.15,248.6-42.4c-66.5.3-133,1.7-199.5,3.7q146.25-25.65,292.4-51.3l-324.3,19.5,270.5-42.6-153.4,9.9q-230,1.5-459.9,16.9c-2.1-1.8-4.3-3.4-6.4-5.2q262.65-41.4,525.3-82.7l-493.2,31.8c240.8-53.2,736.5-158.3,798.8-134.7,82.6,31.3,170.9,310,170.9,310s-7.8-165.7-70-299.4c-35.1-75.3-48-122-137.6-110.7-33.4,4.3-88.8,12.9-152.9,22.1L3006.3,1186l30.8-.6-21.3-41.7-19.9-45.6.7-.1-13.3-29h-21.7l1,1.6-438.1,32.8h-63.7l-46.2,29.7-316,145.2v18l318.6-126.5,1.1,15.1c-.3,1.5-.6,3-.8,4.5-.2,2.6,0,8.9.5,17.7l-330,124.6v28.8l16.2-5-43.2,389h-77c-167.9,0-311.8,137.3-373,332.7h11.6c59-180.7,207.2-307.1,361.4-307.1,208.8,0,378.7,231.7,378.7,516.6s-169.9,516.6-378.7,516.6c-187.4,0-356.7-186.9-386.5-431.2h-12.8C1615.3,2631,1782.3,2829,1984,2829h268.7c130.1,0,245.6-82.8,319.6-211a326.76,326.76,0,0,0,84.8,25.5c62.1,9.8,115.1,21.8,137.1,15.1,57.8,89,142.7,145.5,237.6,145.5h209.3c83.9,0,159.8-44,216.3-115.6,68.2,61.7,170.6,118.9,263.2,118.9,210,0,380.3-182.1,380.3-406.7C4100.8,2226,3982.9,2054.4,3838,1996.8ZM2561.4,1372.1,2862,1212.2l37.1-1-335.3,185.3C2563,1388.3,2562.2,1380.1,2561.4,1372.1Zm26.9,285.8c-5.4-60.3-14.1-153.8-22.7-243L2761.8,1308l52,296.6c-65.6,14.3-146,33.6-225.5,53.3Zm444.7-87.4c-33,4.4-66.9,8.6-100.4,12.2-19.6,2.1-49.2,7.4-85.3,14.8l-64-301.2,158.3-86.3,23.8-.7Zm-52.2-471.2,28.7,44.7-469.1,39.3a105.2,105.2,0,0,0-2.7-13.8,155.24,155.24,0,0,0-6.4-15.9l-2.1-14.8Zm-878.1,629.9,34.6-384,40.3-12.5Zm150,15.3H2180l28.8-342.9,208.2,17.7-206.7-35.2,5.3-63.2,205.7-63.5c2.4,28.6,5.5,64.1,9.1,103.1,10.1,110.7,23.8,248.3,31.9,329.2-117.6,30.2-209.6,54.8-209.6,54.8Zm1074,637.4c0,221.9-132.4,402.4-295,402.4-92.6,0-175.3-58.6-229.4-150.1-63.8-156.6-68.4-262.7-58.4-339.6,29.3-180.1,147.2-315.3,287.9-315.3,81.8,0,156,45.8,209.5,119.6l160-10.6L3256.7,2122a432.21,432.21,0,0,1,21.6,39.5l166-7.9-157.4,23.9c4.9,12.3,12.8,35.5,16.8,48.6l162.7-19.7-157.3,32c10.7,41.7,17.6,96.8,17.6,143.5Zm361,358.4c-77.6,0-147.9-34-200.8-89.2,2-4.8,3.7-10,5.6-15,3.2-5.8,6.4-11.8,9.5-17.9,4.7-9.1.5-1.1,1.1-2.8,61,37.4,150.2,46.6,237.1,17.6,54.8-18.2,76-34,106.9-70.2-23.5,14.8-26.6,12.9-56,22.7-119,39.7-218.4,11.2-258.5-55.4,5.1-17.3,10.1-35.9,14.2-54.7,34.8,21.9,77.2,35,123.6,35,116,0,210-80.6,210-180.1,0-49.5-31.5-95.1-77.5-128.4,0-.1,0-.1-.1-.1l49.1-76.8c79.7,60.2,132.2,162.9,132.2,279.5.2,185.4-132.5,335.8-296.4,335.8Z" style="stroke:#1d1d1b;stroke-miterlimit:10;stroke-width:3px;fill:url(#Gradient_bez_nazwy_10)"/><path d="M1671.3,3845.2q130.5-66.15,274-130.2c-116.6-28.2-231.2-53.9-328.2-71.9-191.1-35.5-488.7-82.1-752.8-118.6Q746.85,3574,640,3627.6c102,13.9,196.4,27.6,277.7,40.6C1078.9,3694,1390.7,3771.4,1671.3,3845.2Z" style="fill:#3aaa35"/><path d="M2422.6,3521.5c-168.6-36.6-333.3-70.2-453.7-90.2-175.1-29.2-379.8-60.6-593.8-87.4q-132.3,39-256.3,82.5c278.9,38.9,686.9,118.7,1048.7,193.9Q2291.1,3570.05,2422.6,3521.5Z" style="fill:#3aaa35"/><path d="M3591,3167.2c-156.7-24.6-366.8-55.8-608.1-87.1-222.4,11.8-439.2,32.6-648.2,61.3,302.3,39.3,618.5,86.5,874.8,126.6Q3395.65,3215.65,3591,3167.2Z" style="fill:#3aaa35"/><path d="M620.1,3734.9c217.6,114.9,467.6,210.2,742.2,281.8,37.9-23.1,76.7-46,116.9-68.8-263-74.1-591.1-164.2-719.7-188.6C724.7,3752.7,676.7,3744.4,620.1,3734.9Z" style="fill:#3aaa35"/><path d="M2023.8,4136.5q133,14.4,270,22.1,160.2,8.85,325.4,7.9c79.5-.4,159.4-2.1,240.3-6.1,38.4-1.9,76.5-4.6,114.6-7.4q194.85-13.5,382.4-40.4c204.7-29.1,401.7-69.5,589.2-119.7,535-143.1,991.8-366.2,1320.4-638.9,6-4.9,11.6-10,17.5-15-224.9-75.4-477.4-136.9-751-182.1-286.1,72.8-571.3,151.9-802,229.6C3080.5,3605.5,2403.5,3938.5,2023.8,4136.5Z" style="fill:#3aaa35"/><path d="M1490.6,4047.9q139.5,31.8,286.4,55.5c387.1-192.8,1061.5-519.5,1468.6-666,340.2-122.4,705-231.6,1025.9-317.7q-133.8-16.2-272.8-27.6c-240.9,59.7-480.4,126.2-702.2,199C2578.6,3527.2,1849.7,3870.4,1490.6,4047.9Z" style="fill:#3aaa35"/><path d="M2680.2,3430.9q124.65-42,255.1-82.3c-282.6-46.4-636.4-98.8-1005.6-139.7q-139.35,27.45-272.7,59.6c142.6,15.3,276.2,31.8,382.2,48.8C2192.2,3341.7,2438.4,3386.1,2680.2,3430.9Z" style="fill:#3aaa35"/><path d="M2966.1,2783.5c-438.8-6.1-880.6,4.9-1311.1,87.8s-851.7,241-1193.3,504c772.9-324.2,1628.9-435.3,2472.2-429.5S4614,3070.4,5447.4,3189C4671.7,2873.6,3811.4,2795.2,2966.1,2783.5Z" style="fill:#fff"/><path d="M4265.6,1418.8c-2.4-10.7-3.8-19.7-3.5-24.5,3.4-60.5,45.8-112.7,109.1-126.3,62.9-13.5,128,14.4,164.5,65.2a134,134,0,0,1,25.1,71.8,4.87,4.87,0,0,0,.1,1.2c1.2,27.2,12.9,52.6,32.1,72.1,21.7,22,33.9,51.1,33.2,80.4,0,1.2-.1,2.3-.2,3.4-2.7,38.3-15.3,79.1-32.5,118.2-16.2,37-27.7,76-36.3,115.8-6.2,28.6-38.9,58.9-59.7,84.7a40.16,40.16,0,0,1-29.6,14.5h0a46.39,46.39,0,0,1-32.5-11.8c-26.4-23.8-65.5-51.1-78.2-78.9a805.56,805.56,0,0,0-65.6-117c-21.2-31.3-39.3-63.8-50.7-95.5-2.6-7.2-4.4-16.7-5.6-26.5-3.1-24.4,2.2-48.7,15.7-68.3C4266.3,1474.9,4271.8,1446.9,4265.6,1418.8Z" style="fill:#3aaa35;stroke:#000;stroke-miterlimit:10"/><path d="M4465.3,2160.8l30.4-12.1c-15.1-23.6-24.3-50-29-77.1a334.35,334.35,0,0,1-4.2-41.2c-.6-13.9-.6-27.8-.1-41.8s1.3-28,2.2-42.1l2.9-42.3c2-28.2,4-56.5,5.5-84.8,3-56.6,4-113.7-1.8-170.7l-.5-5.3-.6-5.3-1.3-10.7c-1.1-7.1-2-14.2-3.3-21.3-.6-3.5-1.1-7.1-1.9-10.6l-2.1-10.6c-.7-3.5-1.6-7.1-2.3-10.6l-1.2-5.3c-.4-1.8-.9-3.5-1.3-5.3l-2.7-10.5-3-10.5c-.9-3.5-2.1-7-3.2-10.4l-1.6-5.2c-.5-1.7-1.1-3.5-1.7-5.2l-3.6-10.3c-1.2-3.4-2.6-6.9-3.9-10.3l-2-5.1-2.1-5.1-4.3-10.2,3.8,10.3c.6,1.7,1.3,3.4,1.9,5.1l1.7,5.2c1.1,3.5,2.4,6.9,3.4,10.4l3.1,10.4c.5,1.7,1,3.5,1.5,5.2l1.4,5.2c.9,3.5,1.9,7,2.6,10.5l2.4,10.5,2.1,10.5c.3,1.8.7,3.5,1,5.3l.9,5.3c.6,3.5,1.3,7,1.8,10.6l1.5,10.6c.6,3.5.9,7.1,1.3,10.6.9,7.1,1.5,14.1,2.2,21.2l.8,10.6.4,5.3.3,5.3c2.9,56.5-.9,112.9-6.7,168.9-2.9,28.1-6.4,56.1-9.7,84.2l-5,42.2c-1.6,14.1-3.2,28.2-4.4,42.5s-2,28.6-2.1,43.1a359.16,359.16,0,0,0,2.3,43.8,249,249,0,0,0,9.4,44.2A212.07,212.07,0,0,0,4465.3,2160.8Z" style="fill:#b0e179;stroke:#000;stroke-miterlimit:10"/><path d="M4948,1542.9c6.3-9.2,11.1-17.2,12.6-21.7,19.9-57.6.1-120.6-53.9-154.7-53.6-33.8-125-29.6-178.4,5.5a141.83,141.83,0,0,0-50.8,58.6c-.2.4-.3.7-.5,1.1-11.5,25-32,44.8-57.4,56.5-28.6,13.2-51.1,36.3-61.6,64-.4,1.1-.8,2.2-1.1,3.2-12.1,36.7-15.8,79-14.6,121.3,1.1,40-3.1,80.3-10.1,120.3-5,28.8,13.9,68.1,23.6,99.2,3.3,10.5,11.3,19,22.1,23.5h0a47,47,0,0,0,34.8-.1c33.6-13.3,80.6-25.7,103-47.4a846.89,846.89,0,0,1,105.8-87.2c31.7-22.1,61-46.4,83.7-72.2,5.2-5.9,10.5-14.1,15.3-22.8,12.2-21.7,16.5-46.2,11.4-69.1C4926,1595,4931.5,1566.9,4948,1542.9Z" style="fill:#3aaa35;stroke:#000;stroke-miterlimit:10"/><path d="M4479.3,2168.6l-23.7-21.5c23.1-17,41.7-38.5,56.4-62.3a336.31,336.31,0,0,0,19.6-37.1c5.9-12.7,11.1-25.8,16-39s9.4-26.6,14-40.1l13.4-40.5c8.9-27,17.7-54.1,27.1-81.1,18.7-53.9,39.5-107.5,66.6-158.8l2.5-4.8,2.6-4.8,5.3-9.5c3.7-6.3,7.2-12.6,11.1-18.8,1.9-3.1,3.8-6.2,5.8-9.3l6-9.2c2-3.1,4.1-6.1,6.2-9.1l3.1-4.5c1-1.5,2.2-3,3.2-4.5l6.5-8.9,6.8-8.8c2.2-2.9,4.6-5.8,6.9-8.7l3.5-4.3c1.2-1.4,2.3-2.9,3.6-4.3l7.3-8.4c2.4-2.8,5-5.5,7.6-8.3l3.8-4.1c1.3-1.4,2.6-2.7,3.9-4l7.9-8-7.5,8.3c-1.2,1.4-2.5,2.8-3.7,4.2l-3.6,4.3c-2.4,2.9-4.8,5.6-7.1,8.5l-6.9,8.7a45.87,45.87,0,0,0-3.3,4.4l-3.3,4.4c-2.2,2.9-4.4,5.9-6.5,8.9l-6.3,9-6,9.1c-1,1.5-2,3-3,4.6l-2.9,4.6c-1.9,3.1-3.9,6.1-5.7,9.3l-5.5,9.4c-1.9,3.1-3.5,6.3-5.3,9.4-3.5,6.3-6.7,12.7-10.1,19l-4.7,9.6-2.4,4.8-2.3,4.9c-24.2,51.8-42.1,105.7-58,160-8,27.2-15.4,54.5-22.9,81.9l-11.3,41.1c-3.8,13.7-7.7,27.4-12,41.1s-9,27.4-14.4,41a365,365,0,0,1-18.8,40.2,264.49,264.49,0,0,1-25.6,38.1A221.71,221.71,0,0,1,4479.3,2168.6Z" style="fill:#b0e179;stroke:#000;stroke-miterlimit:10"/><path d="M4959.1,1855.3c6.6-4.1,12-7.9,14.3-10.2,29.5-30,36.3-71.5,13.3-103-22.9-31.3-68.1-43.8-111.5-34.1a113.77,113.77,0,0,0-48.8,24.1,2.65,2.65,0,0,1-.6.5,93.17,93.17,0,0,1-52.3,21.4c-21.6,1.8-42.4,10.8-57.1,25-.6.6-1.2,1.1-1.7,1.7-18.5,19.2-33.4,43.5-45.4,68.8-11.4,23.9-26,46.9-42.4,69.2-11.7,16-11.9,43.3-15.3,63.7a20,20,0,0,0,6.6,18.5h0c5.3,4.9,13.1,7.5,21.5,7.2,24.7-.8,57.4,1.7,77.6-6.5a684.51,684.51,0,0,1,91.3-29.5c26.1-6.4,51.4-14.7,73.2-25.2a116.37,116.37,0,0,0,16.3-10.3c14-10.3,24-23.9,27.7-38.6C4930,1881.6,4941.8,1866.1,4959.1,1855.3Z" style="fill:#3aaa35;stroke:#000;stroke-miterlimit:10"/><path d="M4354,2258.2l-12.6-27.1c29.5-8.1,56.8-21.7,81.5-38.6a428.2,428.2,0,0,0,35.4-27.4c11.3-9.7,22.2-19.9,32.8-30.3s21-21.2,31.4-31.9l31.1-32.5c20.7-21.7,41.3-43.5,62.5-64.9,42.2-43,86.2-85,135.1-122.9l4.6-3.6,4.6-3.5,9.3-7c6.3-4.5,12.6-9.1,19.1-13.5,3.2-2.2,6.4-4.5,9.7-6.6l9.8-6.5c3.3-2.1,6.7-4.2,10-6.3l5-3.1,5.1-3,10.2-6,10.4-5.8c3.4-2,7-3.8,10.5-5.7l5.3-2.8c1.8-.9,3.5-1.9,5.3-2.7l10.7-5.3c3.6-1.8,7.3-3.4,10.9-5.1l5.5-2.5c1.8-.8,3.7-1.6,5.5-2.4l11.1-4.8-10.8,5.2c-1.8.9-3.6,1.7-5.4,2.6l-5.3,2.7c-3.5,1.8-7.1,3.6-10.6,5.5l-10.4,5.7c-1.7.9-3.5,1.9-5.2,2.9l-5.1,3c-3.4,2-6.8,3.9-10.1,6l-10,6.2-9.8,6.4c-1.6,1.1-3.3,2.1-4.9,3.2l-4.8,3.3c-3.2,2.2-6.4,4.3-9.6,6.6l-9.4,6.8c-3.2,2.2-6.2,4.6-9.3,6.9-6.2,4.6-12.1,9.4-18.2,14.1l-8.9,7.2-4.4,3.6-4.3,3.7c-46.4,39.3-87.8,82.5-127.5,126.8-19.9,22.1-39.3,44.6-58.9,67l-29.4,33.7c-9.9,11.2-19.8,22.4-30.1,33.5s-20.9,22-32.3,32.6a448.31,448.31,0,0,1-36,30.5,315.24,315.24,0,0,1-41.5,26.4A301,301,0,0,1,4354,2258.2Z" style="fill:#b0e179;stroke:#000;stroke-miterlimit:10"/><path d="M4292.5,2873.8l-.8-.3c-20.1-8.4-33.5-21.1-35.4-33.7-31.6-209.7-121.4-442.2-49.5-612.3,22.2-52.4,103-83.8,205.1-80,1.5.1,3,.1,4.5.2,170.2,6.2,324.2,104.2,309.6,196.5-31.9,201.3-199.8,371.6-346,525.2C4364.8,2885.5,4325.1,2887.4,4292.5,2873.8Z" style="fill:#ecdcc5;stroke:#000;stroke-miterlimit:10;stroke-width:4px"/><path d="M4314.2,2762.2c-5.6,7.1-14.4,11.4-24,12.6a32.07,32.07,0,0,0,3.1,1.9l.4.2c18,9.6,41.2,5.4,51.3-9.3,81.8-119,173.4-249.2,220.2-392C4508.9,2518.3,4406,2645.8,4314.2,2762.2Z" style="fill:#dfcfa6;stroke:#000;stroke-miterlimit:10;stroke-width:2px"/><path d="M4271.7,2761l.4.3c13.8,9.9,32,12,44,6a73.19,73.19,0,0,0-27.1-18.7,72.2,72.2,0,0,0-31.3-5.4C4259.9,2749.6,4264.7,2756,4271.7,2761Z" style="fill:#d8cb91;stroke:#000;stroke-miterlimit:10;stroke-width:2px"/><path d="M4554.7,2263.7c-.8,3-25.4.2-55-6.2s-52.9-14.1-52.1-17.1,25.4-.2,55,6.2S4555.5,2260.7,4554.7,2263.7Z" style="fill:#dfcfa6;stroke:#000;stroke-miterlimit:10;stroke-width:2px"/><path d="M4453.3,2338.7c-.8,3-25.4.2-55-6.2s-52.9-14.1-52.1-17.1,25.4-.2,55,6.2S4454.1,2335.7,4453.3,2338.7Z" style="fill:#dfcfa6;stroke:#000;stroke-miterlimit:10;stroke-width:2px"/><path d="M4496.9,2475.5c-.8,3-25.4.2-55-6.2s-52.9-14.1-52.1-17.1,25.4-.2,55,6.2S4497.7,2472.5,4496.9,2475.5Z" style="fill:#dfcfa6;stroke:#000;stroke-miterlimit:10;stroke-width:2px"/><path d="M4460.2,2587.9c-.8,3-25.4.2-55-6.2s-52.9-14.1-52.1-17.1,25.4-.2,55,6.2S4461,2584.9,4460.2,2587.9Z" style="fill:#dfcfa6"/><path d="M4460.2,2587.9c-.8,3-25.4.2-55-6.2s-52.9-14.1-52.1-17.1,25.4-.2,55,6.2S4461,2584.9,4460.2,2587.9Z" style="fill:#dfcfa6;stroke:#000;stroke-miterlimit:10;stroke-width:2px"/><ellipse cx="4320.8" cy="2654.15" rx="3.7" ry="34.3" transform="translate(809.49 6312.64) rotate(-77.74)" style="fill:#dfcfa6;stroke:#000;stroke-miterlimit:10;stroke-width:2px"/><ellipse cx="4312.88" cy="2403.06" rx="3.7" ry="34.3" transform="translate(1048.61 6107.14) rotate(-77.74)" style="fill:#dfcfa6;stroke:#000;stroke-miterlimit:10;stroke-width:2px"/><path d="M4539.5,2184.3c-30.6-24.5-72.8-39.2-118.7-36.6-.9,0-1.7.1-2.6.1a166.09,166.09,0,0,0-26.9,3.6c20.4,11.1,45.2,20.3,72.7,26.3C4490.6,2183.5,4516.4,2185.6,4539.5,2184.3Z" style="fill:#dfcfa6"/><path d="M1168.8,1391.7c6.9,8.8,1.8,16.5-.9,23.6-9.7,25.7-19.2,51.7-30.4,76.7-29.7,66.5-36,136.6-32.6,208.5.3,5.3,1.2,9.5,4.4,14.2,27.8,40.6,49.8,84.6,62.4,133.9,7.2,28.2,6.7,57.6,8.8,86.6.6,8.7-1.7,17.1-9.6,20.7-8.2,3.7-12.4-4.5-16.6-9.7-28.2-35.1-57.9-69.1-67-117.5-2-10.9-5.1-22.5-3.6-33.1,8.7-62.6,1.8-125.6,7.9-188.3a377.7,377.7,0,0,1,30.1-116.5c11.9-27.2,22.2-55.1,33.5-82.6C1157.7,1401.8,1158.3,1392.9,1168.8,1391.7Zm-.4,542.6c-.2-70.9-25.9-151.2-61.1-193.3C1087.2,1816.6,1106.1,1866,1168.4,1934.3Z" style="fill:#ba7d11"/><path d="M1296.4,1282.4c4.2,13.8-2.7,26.6-7.5,39.1-18.4,47.9-36.9,95.7-48.5,146.3-7.4,32.2-8.2,65.4-15.7,97.5-1.5,6.5,2.1,11.4,3.6,17.1,16,59.9,21.8,119.8-2.4,180-7.8,19.3-19.3,34.2-35.7,44.9-61.2-69.8-66-129.5-4.4-209.2,18.8-24.3,28-48.8,30.6-78.7,7.5-82.9,40.4-157.2,69.8-232.7C1287.6,1283.1,1290.3,1280.8,1296.4,1282.4Zm-84.3,311.7c-61.8,60.8-72.7,125.4-21.9,190.3C1230.4,1758.2,1234.5,1640.9,1212.1,1594.1Z" style="fill:#ba7d11"/><path d="M342.42,2001.92l100.34,19.64q15.5,17.57,29.1,44.85t18.74,64q5.13,36.68-3.92,82.89-13.23,64.35-50.53,108.18a200.78,200.78,0,0,1-92.28,61.81q-55,18-121.26,5t-110.73-50.4q-44.44-37.43-62.47-92.1T44,2126.61q6.54-33.43,17.25-59.13a246.37,246.37,0,0,1,24.36-45.42,271.73,271.73,0,0,1,28.66-35.12l88.12,4.62-1.07,5.47q-37,2.22-65.18,18.5t-47.09,45.4q-19,29.13-26.81,69.25-10,51.09,7.92,95t59.25,74.73q41.31,30.83,102.13,42.72t110.7-1.06q49.89-13,82.74-46.94t43.46-84.94a207.51,207.51,0,0,0,3.67-52.63A209.79,209.79,0,0,0,463,2107a181,181,0,0,0-20.66-44.45L334.8,2040.84q-27.36-5.35-33.43,25.66l-1.9,9.73-6.08-1.19,23.32-119.19,6.08,1.19-1.78,9.12Q314.82,1997.8,342.42,2001.92Z" style="fill:#fff"/><path d="M276.32,1552.49q34.95-56.33,85.37-84.12t108.45-25q58,2.83,115.43,38.43t85.71,86.35q28.31,50.74,25.81,108.25t-37.45,113.85q-34.64,55.82-85,83.6t-108.45,25q-58-2.82-115.43-38.43T265,1774.07a200.34,200.34,0,0,1-25.81-108.25Q241.71,1608.31,276.32,1552.49Zm367.52,228q27.76-44.74,26.4-91.91T641,1598.24q-27.9-43.18-80.55-75.86t-103.74-38.47q-51.09-5.81-93.94,13.91t-70.62,64.47q-27.44,44.24-26.07,91.38T295.32,1744q27.89,43.2,80.55,75.85t103.74,38.48q51.07,5.81,93.94-13.91T643.84,1780.49Z" style="fill:#fff"/><path d="M581.33,1174.09a202,202,0,0,1,16-14.21q9-7.2,18.21-13.33t17.1-10.92a68.8,68.8,0,0,1,13.16-6.55l48.54,48.72-4,3.94q-21-21.08-47.5-18.71T595.77,1186q-24.15,24-24,54.06t20.28,50.21q8.31,8.34,23.19,15.81t34.6,7.08l166.07-6.27q25.43-.83,43.8,8.84a128.57,128.57,0,0,1,31.5,22.84q36.32,36.45,36.88,81.35t-37.18,82.52a234.24,234.24,0,0,1-27,22.51,171,171,0,0,1-35.31,19.87q-18.85,7.88-36.38,7.82a137.77,137.77,0,0,1-18.81-16.24,209.93,209.93,0,0,1-20.33-23.92,193,193,0,0,1-16.38-26.1l4-3.93q20.1,24.57,44.63,33.38t48.19,2.28q23.67-6.54,42.11-26.65,22.82-25.37,24.64-58.23T875.83,1374a82.44,82.44,0,0,0-27.35-18.67,70.3,70.3,0,0,0-30.44-5.09l-162.12,5.84q-25.41.82-45.33-8.63T578,1325.24a108.47,108.47,0,0,1-26.65-44.3q-8.28-25.86-1.65-53.89T581.33,1174.09Zm59.24-50.28,9.19,9.22-33.36,33.24-9.19-9.22Z" style="fill:#fff"/><path d="M819.62,1033.54l-1.5,1.1a37.15,37.15,0,0,0-25.79-15.29,38.63,38.63,0,0,0-29.27,7.22l-6,4.4-4.16-4.64,40-29.28Zm4.26-59.19,256.27,349.93-32.49,23.8L791.39,998.14Zm59.49-43.57q32-23.41,63.41-28.77a102.41,102.41,0,0,1,59.84,7.25q28.42,12.6,50.39,42.59,16.85,23,21.21,47.83a115.08,115.08,0,0,1-1.49,48.32,127.17,127.17,0,0,1-20.26,43.64,124.73,124.73,0,0,1-35.77,33.49A123,123,0,0,1,973,1142.37l-3.66-5a187,187,0,0,0,31.53-20.4,138.81,138.81,0,0,0,24-26q11.27-15.54,15.23-36.88t-5.28-47.59a122.74,122.74,0,0,0-7.56-15.58,111.77,111.77,0,0,0-11.4-16.61Q990.09,940.19,957.22,932t-64.86,15.24l-59,43.2-16-11.33Zm139.06,379.71,26.73,36.49-40,29.29-3.66-5,6.5-4.76a37.57,37.57,0,0,0,15.47-25.54,39.9,39.9,0,0,0-6.54-29.38Zm29.5-21.6,1.5-1.1a39.81,39.81,0,0,0,26,15.11,37.53,37.53,0,0,0,29-7l6.5-4.76,3.66,5-40,29.28Z" style="fill:#fff"/><path d="M1293.72,674.83q59.35-29.54,116.85-26.67T1515.94,684q47.88,32.92,78,93.38t27.5,118.52q-2.61,58-35,105.65t-91.72,77.15q-58.8,29.27-116.29,26.39t-105.38-35.8q-47.88-32.91-78-93.38t-27.5-118.51a200.29,200.29,0,0,1,35-105.66Q1234.93,704.11,1293.72,674.83ZM1486.45,1062q47.15-23.48,70.77-64.3t22.62-92.24q-1-51.4-28.63-106.87t-68-87.28q-40.41-31.8-87.22-37.56t-94,17.7q-46.6,23.21-70.23,64t-22.61,92.23q1,51.4,28.63,106.88t68,87.27q40.39,31.8,87.22,37.56T1486.45,1062Z" style="fill:#fff"/><path d="M1659.82,573.4l-1.77.55a37.17,37.17,0,0,0-19.42-22.84,38.66,38.66,0,0,0-30-2.68l-7.1,2.21-2.43-5.73,47.33-14.71Zm23.27-54.6L1811.78,933l-38.47,12L1644.63,530.75Zm116.57-36.21q63.31-19.68,118.95-8.73a195.81,195.81,0,0,1,97.07,49.32q41.44,38.39,60.75,100.51t6.81,116.95q-12.49,54.83-52,95.65t-102.86,60.5l-126.63,39.34-6.11-17.56,44.68-13.88,38.16-11.86L1922.83,879q50.88-15.81,81.11-51.15t38-84.47q7.77-49.14-9.88-105.94t-51.89-92.88q-34.25-36.09-79.46-48t-95.52,3.73l-46.45,14.43-39.65,12.32-47,14.61L1666.52,524Zm-38,418.62,13.42,43.2-47.34,14.7-1.84-5.91,7.7-2.39a37.63,37.63,0,0,0,22.93-19.13,39.85,39.85,0,0,0,3.35-29.92Z" style="fill:#fff"/><path d="M2216.87,772.24q-2.14,13,2.41,21a25.67,25.67,0,0,0,12.36,11.37,26.44,26.44,0,0,0,15.15,2.07l5.49-1,1.07,6.11-122.68,21.45-1.07-6.1,5.49-1q14-2.46,27.45-13.92t19.54-33.93Zm62.82-414.19,13,41.76-84.79,418-36.62,6.4,91.36-398.42q4.05-16.43,6.7-28.23t4.2-22.75q1.55-11,.69-15.84Zm133.12,254.12,3.21,18.31L2225,663.89l-3.2-18.31ZM2279.69,358.05l256.23,400.54L2484,767.67l-206.42-349.5Zm181.94,371.39,50-8.75q12.78,19.15,29.59,25.33t30.84,3.73l4.88-.85,1.07,6.1-137.33,24-1.07-6.1,5.5-1q11.58-2,19-13.7T2461.63,729.44Z" style="fill:#fff"/><path d="M2623.61,365.41l-1.85.11a39.94,39.94,0,0,0-13.69-26.81,37.64,37.64,0,0,0-28.21-9.82l-8,.48-.36-6.19,49.48-2.93Zm20.29,342.67,2.68,45.15-49.49,2.93-.36-6.18,8-.48a37.57,37.57,0,0,0,26.85-13.07,39.92,39.92,0,0,0,10.43-28.24ZM2659.29,318l25.64,433-40.21,2.38-25.64-433Zm79.17-4.69q27.84-1.64,50.89,5.06t39.41,20.94a103.06,103.06,0,0,1,26,35.09q9.62,20.83,11.22,48.06a123.56,123.56,0,0,1-10.54,57.73,121.43,121.43,0,0,1-35.12,46.46,90,90,0,0,1-52.49,20.18q10.76,3.71,23.93,16.27a321.88,321.88,0,0,1,23.17,24.39q18.12,23.13,31.83,39.7t27.68,32.5q14,15.93,23.85,25.28a267.59,267.59,0,0,0,26.17,22.66,104,104,0,0,0,27.89,15.1,82.06,82.06,0,0,0,32.84,4.27l.37,6.18-34,2q-28.47,1.68-49.69-5.75t-36.21-19.27a241.16,241.16,0,0,1-25.57-23q-2-2.35-11.05-13.62t-21.46-27q-12.42-15.7-24.5-31.14T2762.24,589q-8.73-10.95-10.07-12.75a215,215,0,0,0-27.66-26.91q-15-12.15-31.7-11.16l-.36-6.18q19.2-.51,32.78-1.94a195.29,195.29,0,0,0,35-7q18.92-5.46,34.82-20.06t22.9-42.95a122.83,122.83,0,0,0,2.09-17.19,111.39,111.39,0,0,0-.57-20.14q-3.12-42-25.32-65.85t-57-23.63q-17.4-.19-35.62,1.18t-43,2.86a36.66,36.66,0,0,0-1.86-5.17q-1.82-4.55-5.46-13.64ZM2680.4,705.92l1.85-.11a37.09,37.09,0,0,0,13.38,26.83,38.59,38.59,0,0,0,28.52,9.79l7.42-.44.36,6.19-48.86,2.89Z" style="fill:#fff"/><path d="M3125.47,298.88a201.25,201.25,0,0,1,21.33,1.85q11.41,1.57,22.2,4t19.7,4.9a68.8,68.8,0,0,1,13.8,5l-2,68.75-5.57-.16q.84-29.73-19.11-47.34t-49.06-18.45q-34.08-1-55.74,19.8t-22.48,49.26q-.33,11.78,4.48,27.71t18.67,30l118.8,116.2q18.09,17.88,23.72,37.87a128.73,128.73,0,0,1,5.09,38.58q-1.46,51.42-33.66,82.72t-85.46,29.8a233.85,233.85,0,0,1-34.91-4.1,170.81,170.81,0,0,1-38.71-12q-18.67-8.28-30.7-21a137.23,137.23,0,0,1-1.15-24.83,208.83,208.83,0,0,1,3.37-31.21,193,193,0,0,1,7.67-29.84l5.57.16q-4,31.5,6.48,55.35t31.5,36.54q21,12.69,48.31,12.23,34.11-.88,59.21-22.18T3183,650.13a82.35,82.35,0,0,0-5.26-32.69,70.35,70.35,0,0,0-17.25-25.6L3044.73,478.2q-18.09-17.86-24.93-38.83t-6.33-38.93a108.68,108.68,0,0,1,13.82-49.81q13.08-23.81,38-38.28T3125.47,298.88Zm77.24,8.4-.37,13-47.07-1.35.37-13Z" style="fill:#fff"/><path d="M3346,334l-.22,1.84a37.64,37.64,0,0,0-27.14,8.06q-11.7,9.25-13.48,24.63L3303.92,379l-6.23-.1,5.83-49.85Zm315.81,20.07-2.15,18.46L3303.3,330.86l2.16-18.46Zm-355-52.73q5.86,3.18,18.2,7.12t27.5,7.58a238.27,238.27,0,0,0,28.09,5.15l-75.87-2ZM3420.3,717.59l-5.25,44.93-49.24-5.75.72-6.16,8,.94a37.6,37.6,0,0,0,28.72-8.19,39.91,39.91,0,0,0,15.2-26Zm83-379.57L3453.2,767l-40-4.68,50.14-428.95Zm-46.73,383.82,1.85.21a39.78,39.78,0,0,0,8.8,28.79,37.54,37.54,0,0,0,26,14.59l8,.93-.72,6.16-49.23-5.76ZM3663.09,343,3661,360.82l-74.29-15.55a239.54,239.54,0,0,0,28.83,1.5q15.3-.09,28.51-1T3663.09,343Zm-3.24,27.69L3654,420.51l-6.09-1.33,1.23-10.46a34.9,34.9,0,0,0-7.75-27.11,38.08,38.08,0,0,0-24.25-14.06l.22-1.85Z" style="fill:#fff"/><path d="M3807.51,425.12l-47.4-12.24q-2.09-21.66-15.73-34.47T3716.93,362l-4.8-1.24,1.55-6,133.18,34.41-1.55,6-5.39-1.39q-11.41-3-22.58,4.4T3807.51,425.12Zm-51-55.4,48.59,12.55,19,387L3797.08,832ZM4028.72,426,4021,475.8,3832.29,770.07q-11.45,19.45-18.38,34a204.26,204.26,0,0,0-11.43,29.37l-5.4-1.4,3-56.18,223.24-351.26Zm-.15.6,34.67,385.9-34.59,79.38-37.22-405.76Zm240.31,75.53-204.43,328q-11.58,20-18.83,34.49a179.63,179.63,0,0,0-11.57,28.69l-5.4-1.4,8.15-61.25,198.48-337.18Zm-55.23,28q9.45-16.76,4.13-28.37T4200.47,487l-5.4-1.4,1.55-6,118.18,30.54-1.55,6-4.8-1.24q-13.8-3.57-32.24,1t-30.16,22.6Z" style="fill:#fff"/><path d="M4593.21,626q60.47,27.21,94.66,73.52t39.05,104.21q4.86,57.9-22.86,119.49t-74.28,96.35q-46.57,34.75-103.9,39.87t-117.8-22.1q-59.9-27-94.09-73.26t-39.05-104.22q-4.87-57.9,22.86-119.49t74.28-96.35q46.56-34.75,103.9-39.87T4593.21,626Zm-177.5,394.39q48,21.61,94.58,14t85.7-40.93q39.12-33.35,64.56-89.85T4685,795.76q-1-51.4-26.19-91.29T4585.59,643q-47.48-21.36-94-13.78t-85.69,40.93q-39.14,33.35-64.56,89.85t-24.45,107.91q1,51.4,26.19,91.29T4415.71,1020.42Z" style="fill:#fff"/><path d="M5210.56,1344.82l-64.43,79.39q-22.79,5.44-53.25,4.66t-65.28-13.48q-34.8-12.67-71.36-42.35-50.61-41.88-71.82-95.39a200.67,200.67,0,0,1-11.27-110.49q9.92-57,52.49-109.42t96.46-74.13q53.91-21.69,110.65-12t107.73,51.12q26.46,21.46,44.12,43a246.54,246.54,0,0,1,28.69,42.82,272.35,272.35,0,0,1,17.56,41.79L5285.42,1226l-4.33-3.51q15.42-33.75,14.25-66.24t-18-62.88q-16.82-30.41-48.57-56.18-40.41-32.79-87.6-37.57t-93.8,17.24q-46.6,22-85.65,70.14t-51,98.26q-12,50.13,2.63,95.09t54.61,78.24a207.82,207.82,0,0,0,93.27,43.37,180.78,180.78,0,0,0,48.95,2.62l69.59-84.77q17.58-21.64-7-41.56l-7.7-6.25,3.9-4.81,94.3,76.53-3.9,4.81-7.22-5.86Q5227.16,1322.38,5210.56,1344.82Z" style="fill:#fff"/><path d="M5204.54,1532l-35.07,28.57-31.31-38.43,4.8-3.91,5.09,6.24a37.58,37.58,0,0,0,26.31,14.14,39.93,39.93,0,0,0,29-8.05ZM5530,1316.39l-336.24,274-25.44-31.22,336.24-274Zm-215.67,391.54-14.89,12.13-106.85-131.13,14.89-12.13Zm86.8-22-100.52,35.55-65-79.74,29,5.16q20.74,25.46,41.78,35.09a88,88,0,0,0,43.67,8,226.45,226.45,0,0,0,47.15-8.85Zm-147.77-291.22L5459.39,1473l-6.62,17.38-206.05-78.28Zm252.38-108.14-35.07,28.58-1.17-1.44a39.94,39.94,0,0,0,13.74-26.79,37.65,37.65,0,0,0-8.53-28.62l-5.09-6.24,4.8-3.91Zm54.4,66.77-4.8,3.92q-.39-.49-5.09-6.25a37.57,37.57,0,0,0-26.3-14.13,39.83,39.83,0,0,0-29,8l-1.18-1.44,35.07-28.58Z" style="fill:#fff"/><path d="M5407.29,1800.13q-13.09,1.2-19.68,7.63a25.67,25.67,0,0,0-7.86,14.84,26.41,26.41,0,0,0,1.83,15.18l2.32,5.07-5.63,2.58-51.81-113.26,5.63-2.58,2.32,5.08q5.92,12.94,20.42,23t37.76,10.32Zm420.2-36.21L5790.37,1787l-429.74,15.35-15.47-33.8,412.44-4q16.9-.24,29-.66t23.07-1.7c7.33-.86,12.49-2,15.5-3.34Zm-340.7,318.72q-10.8-16.18-26.91-19.37t-29.07,2.74a38.15,38.15,0,0,0-21.2,23.67q-5.41,16.43,1.77,32.91t27.73,24.12l-1.84,4.92a48.1,48.1,0,0,1-29.58-6.57,65.51,65.51,0,0,1-21.59-21.12,58.26,58.26,0,0,1-9.27-28.46,53.38,53.38,0,0,1,7-29.43q7.83-14.16,27.56-23.17a42.38,42.38,0,0,1,29.65-3.69q15.28,3.57,25.8,11.71,12.43,9.29,23.89,6.78t25.83-17.26l19.91,49.49q-13.86,15.87-15.69,32.72t3.84,29.25l2.32,5.07-5.07,2.32q-8-17.47-12.45-28.71t-7.53-18.7q-3.07-7.46-6.17-14.21A95,95,0,0,0,5486.79,2082.64Zm340.7-318.72-319,357.18-24.17-46.86,284.5-297.1ZM5615.1,1956.49l-16.9,7.73-80.43-175.8,16.9-7.73Z" style="fill:#fff"/><path d="M5560.82,2207.37l-44.9,5.49-6-49.2,6.22-.14c.1.82.27,2.16.49,4l.42,3.38a38.63,38.63,0,0,0,14.76,26.29,37.12,37.12,0,0,0,28.8,8.33Zm390.29-9.06L5520.59,2251l-4.9-40,430.53-52.69Zm4.29,35.05q5.27,43-4,74.47T5921,2357.44q-21.18,18.18-51.94,22-25.83,3.15-46.41-4.31t-34.45-21.38a96,96,0,0,1-20.9-30.53q-.94,33.2-14.64,58.91a112.8,112.8,0,0,1-37.07,41.37q-23.37,15.64-54.12,19.42-34.45,4.22-62.62-9.19t-46.57-43.93q-18.42-30.51-24-76l-8.35-68.27q11.15-.75,22.22-2.09l8,65.19q3.91,32,18,52.73a78,78,0,0,0,37.65,29.72q23.58,9,54.33,5.22,34.44-4.21,54.35-20.07t28.42-38.13a148.34,148.34,0,0,0,9.53-47.05,289.35,289.35,0,0,0-1.68-46.92l5.53-.68a181.26,181.26,0,0,0,6.92,31,103,103,0,0,0,16.36,31.71q11.19,14.85,30.61,23.09t48.94,4.63q27.68-3.39,46.12-16a67.87,67.87,0,0,0,26.14-33.78q7.69-21.24,4.09-50.76l-6.92-56.58a37.75,37.75,0,0,0,5-2.18q4.43-2.1,13.89-6.38Zm-53.85-67.69-.23-1.85a37.13,37.13,0,0,0,25.94-15,38.61,38.61,0,0,0,8-29.07c-.05-.41-.19-1.54-.41-3.38s-.39-3.18-.49-4l6.07-1.37,6,49.21Z" style="fill:#fff"/></svg>